<svg xmlns="http://www.w3.org/2000/svg" viewBox="0 0 67.26 234.35"><defs><style>.cls-1{fill:#f5d2b8;}.cls-2{fill:#e9c7ae;}.cls-15,.cls-16,.cls-17,.cls-18,.cls-19,.cls-20,.cls-21,.cls-22,.cls-3,.cls-4{fill:none;stroke-linecap:round;}.cls-3{stroke:#e9c7ae;stroke-miterlimit:10;}.cls-4{stroke:#7d4e24;}.cls-15,.cls-16,.cls-17,.cls-18,.cls-19,.cls-20,.cls-21,.cls-22,.cls-4{stroke-linejoin:round;}.cls-5{fill:#efe1dd;}.cls-6{fill:#f4eae8;}.cls-7{fill:#68abba;}.cls-8{fill:#010101;}.cls-9{fill:#6a4a31;}.cls-10{fill:#f8b22e;}.cls-11{fill:#ba4030;}.cls-12{fill:#dbe6ad;}.cls-13{fill:#723b29;}.cls-14{fill:#ececec;}.cls-15,.cls-16,.cls-17,.cls-18,.cls-19,.cls-20,.cls-21,.cls-22{stroke:#d9d9d9;}.cls-15{stroke-width:0.11px;}.cls-16{stroke-width:0.1px;}.cls-17{stroke-width:0.11px;}.cls-18{stroke-width:0.09px;}.cls-19{stroke-width:0.1px;}.cls-20{stroke-width:0.1px;}.cls-21{stroke-width:0.11px;}.cls-22{stroke-width:0.11px;}.cls-23{fill:#9b5064;}</style></defs><g id="Layer_2" data-name="Layer 2"><g id="Layer_3" data-name="Layer 3"><path class="cls-1" d="M5.91,120.86s1.45,6.12,1.74,7,1,1.43.87,2-.92-.07-1.3-.2a.48.48,0,0,1-.28-.24L6,128.13a7.9,7.9,0,0,1-.3-1.79c.07-.35-.33-.16-.33-.16l0,.58a7.62,7.62,0,0,0,.31,1.88c.22.44.93,2,.93,2s.33,1.15-.27,1.59-.74-.57-.74-.57l-1.68-2.39s-.27,0-.39-2.28c0,0-.29-1-.26.74a4.21,4.21,0,0,0,.89,2.73c.3.54.7,1.1.7,1.1s.85,1.05.25,1.34-1.3-.41-1.3-.41l-.31-.39L2.1,130.35a2.84,2.84,0,0,1-.45-2.13c.09-.9-.16-.9-.16-.9s-.23.07-.17.74c.11,1.37.12,1.55.57,2.19s1.29,1.9,1.29,1.9.28,1.32-.93.78a15.4,15.4,0,0,1-2-2.25s-.42-.33-.23-3.45a13.53,13.53,0,0,1,1.2-5.07l.09-.84Z"/><path class="cls-2" d="M30.55,41.4s-1.65,8.88-2.6,10,13.54.69,13.54.69-2.16-12-.15-12.23Z"/><path class="cls-1" d="M50.57,24.3,47.8,20.91c-4.18-2.92-18.71-7.2-18.71-7.2s-8.92,10.8-4,20.56,10.35,8.79,13.55,7.66,8.56-4.9,9.45-8.71c0,0,3-7.19,2.48-8.92"/><path class="cls-3" d="M35,26.19S32.81,33.86,36.72,32"/><path class="cls-4" d="M29.77,23.6s-3.44-1.37-5.39.92"/><path class="cls-4" d="M46.26,22.8s-3.44-1.38-5.39.92"/><path class="cls-5" d="M38.86,26.53a4.61,4.61,0,0,1,5.89-.24,5.8,5.8,0,0,1-2.58.79A22.74,22.74,0,0,1,38.86,26.53Z"/><path class="cls-6" d="M31.07,26.74a2.32,2.32,0,0,0-2.88-1.27A5.63,5.63,0,0,0,25.13,27a12.16,12.16,0,0,0,3.68.37C30,27.08,31.07,26.74,31.07,26.74Z"/><path class="cls-7" d="M27.58,25.63s-.57,1.73,1.05,1.71,2-.81,1.84-1.29C30.14,25.05,27.66,25.41,27.58,25.63Z"/><path class="cls-7" d="M40.69,25.46S40,26.84,41.7,27s1.8-.28,1.6-1.31C43.15,25,40.69,25.46,40.69,25.46Z"/><ellipse class="cls-8" cx="29.02" cy="26.38" rx="0.43" ry="0.4" transform="translate(-0.44 52.27) rotate(-83.58)"/><ellipse class="cls-8" cx="42.05" cy="26.16" rx="0.41" ry="0.38" transform="translate(9.33 63.33) rotate(-80.53)"/><path class="cls-9" d="M51,10.85c5.06-3.15,1.91-5.4,1.91-5.4.72-1.48-1.52-4.4-1.52-4.4-4.21-2.93-4.58,1.19-4.58,1.19l-2.25-1c-2.85-.84-3.32,5.5-3.32,5.5-4.35-2.41-11,1.83-11,1.83C21.35,17,24.17,23.77,24.17,23.77,27.79,24.84,35,18.15,35,18.15c2.73,4.45,9.76,5.92,13.51,6.41a2.92,2.92,0,0,0,3.24-2.45C52.05,20,52.15,16.36,51,10.85Z"/><path class="cls-1" d="M3.11,77.87S1.74,99.13,1.46,108.76s-.23,12.84-.23,12.84.33,1.35,4.68.22c.39-.1,2.87-24.67,2.87-24.67l3-19.15"/><path class="cls-10" d="M14.68,221.56s-.22,4.17-1.31,4.83-13.83,8.55-7.46,7.9,20-2,20-2l.22-11.63Z"/><path class="cls-10" d="M54.66,221.15s0,4.17,1.06,4.88,13.1,9.21,6.91,8.25-19.43-2.93-19.43-2.93l.35-11.62Z"/><path class="cls-11" d="M12.58,120s-5.11,92.85-3,100.26c0,0,9.53,3.71,18.53,1.06l2.12-76,9,.26L41.1,219s10.32,4.76,16.68,1.06c0,0,4.14-84.66-2-100.28C55.83,121.06,12.58,120,12.58,120Z"/><path class="cls-12" d="M28.8,49.1S7.43,49.51,4.56,61.38c0,0-4.78,12.15-4.21,16.16s14.3,1.39,14.3,1.39-2.18,41.64-2.52,44.14l44.72-.57s-5.63-41.56-4.63-42.9l15-.17s-.17-23.21-19.38-28.72L41.64,50S32.72,53.08,28.8,49.1Z"/><path class="cls-1" d="M56.59,79.43s.78,17.1,1.32,26.23-.3,13.5-.3,13.5,2.12,6.47,4.32,2.68,2.58-24.46,2.58-24.46l-.35-18"/><path class="cls-1" d="M57.82,119.2s-2.14,6.53-2.47,7.46-1.11,1.53-1,2.12c.13.44,1-.07,1.43-.22a.58.58,0,0,0,.3-.25l1-1.35a8.6,8.6,0,0,0,.34-1.92c-.08-.37.36-.18.36-.18l.05.63a8.12,8.12,0,0,1-.34,2c-.24.48-1,2.13-1,2.13s-.35,1.24.3,1.72.81-.62.81-.62l1.84-2.57s.29,0,.43-2.46c0,0,.31-1.09.27.8a4.47,4.47,0,0,1-1,2.94,13.72,13.72,0,0,1-.76,1.19s-.93,1.13-.28,1.44,1.43-.45,1.43-.45l.34-.42,1.5-1.84a3.08,3.08,0,0,0,.49-2.3c-.11-1,.17-1,.17-1s.26.08.19.8c-.13,1.47-.14,1.67-.63,2.35s-1.41,2.05-1.41,2.05-.3,1.42,1,.84a16.33,16.33,0,0,0,2.15-2.42s.46-.35.26-3.72a14.47,14.47,0,0,0-1.32-5.47l-.47-.36Z"/><polygon class="cls-13" points="31.05 35.84 41.02 34.34 41.28 34.63 33.83 37.91 30.88 35.89 31.05 35.84"/><path class="cls-14" d="M31.77,35.76s.43.69.77.55.07-.2.07-.2a.53.53,0,0,0,.59.42c.27,0,.21-.31.21-.31,0,.48.33.43.33.43.72,0,.42-.44.42-.44a.58.58,0,0,0,.62.58c1.15.06.72-.79.72-.79s0,.66.76.62c1.06-.06.64-.65.64-.65s.05.3.49.26c1-.07.62-.62.62-.62s-.18.23.38.24.42-.6.42-.6-.06.36.24.25a.24.24,0,0,0,.12-.38s.13.26.29.09c.32-.34-.05-.47-.05-.47l-2.33.37-3.3.5-1.15.09-.39,0"/><line class="cls-15" x1="32.66" y1="36.22" x2="32.67" y2="35.77"/><line class="cls-16" x1="33.39" y1="36.34" x2="33.48" y2="35.67"/><line class="cls-17" x1="38.79" y1="35.4" x2="38.6" y2="34.91"/><line class="cls-18" x1="39.2" y1="35.22" x2="39.1" y2="34.8"/><line class="cls-19" x1="34.22" y1="36.43" x2="34.23" y2="35.73"/><line class="cls-20" x1="35.59" y1="36.36" x2="35.46" y2="35.54"/><line class="cls-21" x1="38.08" y1="35.81" x2="37.88" y2="35.05"/><line class="cls-22" x1="36.99" y1="36.1" x2="36.76" y2="35.19"/><path class="cls-23" d="M30.58,35.42a26.81,26.81,0,0,1,5-.33c.65.16,4.84-1.38,5.54-.92.47.31-3.23,1.44-4.86,1.64C30.89,36.46,30.71,35.62,30.58,35.42Z"/><path class="cls-23" d="M30.76,35.84s2.33,3,4.64,2.76c2.63-.31,6.05-3.59,5.92-4s-4.81,2.4-6.18,2.49C34,37.15,30.86,35.74,30.76,35.84Z"/></g></g></svg>