<svg xmlns="http://www.w3.org/2000/svg" viewBox="0 0 83.92 240.45"><defs><style>.cls-1{fill:#f5d2b8;}.cls-2{fill:#efe1dd;}.cls-3{fill:#f4eae8;}.cls-4{fill:#936037;}.cls-5{fill:#010101;}.cls-6{fill:#664830;}.cls-7,.cls-9{fill:none;stroke-linecap:round;stroke-width:1.02px;}.cls-7{stroke:#e9c7ae;stroke-linejoin:round;}.cls-8{fill:#e9c7ae;}.cls-9{stroke:#683c11;stroke-miterlimit:10;}.cls-10{fill:#ffe7c1;}.cls-11{fill:#857365;}.cls-12{fill:#d19c39;}</style></defs><g id="Layer_2" data-name="Layer 2"><g id="Layer_3" data-name="Layer 3"><path class="cls-1" d="M72.91,120s-1.38,8.67-1.83,10.14-1.54,2.45-1.31,3.38c.17.7,1.4-.12,2-.35a.75.75,0,0,0,.42-.4l1.39-2.13a15.85,15.85,0,0,0,.46-3.06c-.11-.6.5-.28.5-.28l.07,1a15.17,15.17,0,0,1-.47,3.22c-.33.76-1.41,3.38-1.41,3.38s-.49,2,.41,2.73,1.13-1,1.13-1l2.54-4.1s.39,0,.59-3.9c0,0,.44-1.73.38,1.27a7.8,7.8,0,0,1-1.34,4.67c-.45.93-1.06,1.89-1.06,1.89s-1.28,1.8-.38,2.29,2-.71,2-.71l.46-.66,2.07-2.94a5.32,5.32,0,0,0,.68-3.65c-.14-1.54.24-1.54.24-1.54s.35.12.27,1.27c-.18,2.34-.2,2.65-.87,3.74s-2,3.26-2,3.26-.42,2.26,1.4,1.33c.65-.33,3-3.84,3-3.84s.64-.57.35-5.91a25.89,25.89,0,0,0-1.82-8.7l-.64-.57Z"/><path class="cls-1" d="M9.36,121.44s1.32,8.14,1.75,9.52,1.48,2.3,1.26,3.17c-.16.66-1.34-.11-1.89-.33a.74.74,0,0,1-.4-.38l-1.33-2a14,14,0,0,1-.45-2.86c.11-.56-.47-.27-.47-.27l-.07.93a14.12,14.12,0,0,0,.44,3c.33.72,1.36,3.18,1.36,3.18s.47,1.83-.4,2.55-1.08-.92-1.08-.92l-2.43-3.84s-.39,0-.57-3.66c0,0-.42-1.63-.37,1.19A7.22,7.22,0,0,0,6,135.13c.43.87,1,1.77,1,1.77s1.23,1.68.37,2.15-1.9-.67-1.9-.67L5,137.76l-2-2.76a4.94,4.94,0,0,1-.65-3.43c.13-1.44-.24-1.44-.24-1.44s-.33.11-.25,1.19c.17,2.2.19,2.49.84,3.51s1.87,3.06,1.87,3.06S5,140,3.27,139.13c-.63-.31-2.86-3.6-2.86-3.6S-.2,135,.07,130a23.69,23.69,0,0,1,1.75-8.15l.62-.54Z"/><path class="cls-1" d="M46.54,9.22s8.82,7,8.52,8.74l-.5,2.43s3.41-2.62,3.41,0-.6,5.24-3.51,6.21-9.72,8-9.72,8L28.1,31.36,27.3,13.2Z"/><path class="cls-2" d="M35,22.4a4.87,4.87,0,0,0-6.09-.13,6.17,6.17,0,0,0,2.68.75A23.46,23.46,0,0,0,35,22.4Z"/><path class="cls-3" d="M43.54,22.26a2.4,2.4,0,0,1,3-1.28,5.92,5.92,0,0,1,3.16,1.48,12.89,12.89,0,0,1-3.8.37C44.65,22.59,43.54,22.26,43.54,22.26Z"/><path class="cls-4" d="M47.14,21.15s.59,1.72-1.08,1.7S44,22,44.16,21.57C44.5,20.57,47.06,20.92,47.14,21.15Z"/><path class="cls-4" d="M33.06,21.36s.7,1.38-1,1.6-1.86-.25-1.67-1.28C30.51,20.94,33.06,21.36,33.06,21.36Z"/><ellipse class="cls-5" cx="45.66" cy="21.9" rx="0.42" ry="0.43" transform="translate(-3.92 11.58) rotate(-13.87)"/><ellipse class="cls-5" cx="31.67" cy="22.09" rx="0.4" ry="0.41" transform="matrix(0.93, -0.37, 0.37, 0.93, -5.93, 13.3)"/><path class="cls-6" d="M56.41,19.59s.58-15-7.3-17.36c0,0-9.5-4.21-16-1.06s-9.23,4.61-8.83,7.89,3,7.11,6.11,7,7.2-3.82,10.18-2.9.69,3.23,4.62,2.76c3.49-.41,5.74-3.2,6.24-2.46,2.06,3.06,1.34,6.52,2.77,7A1.67,1.67,0,0,0,56.41,19.59Z"/><path class="cls-7" d="M38.94,20.87s-1.36,7.25,1,8.57"/><path class="cls-8" d="M48,40.49a11.24,11.24,0,0,0,.31,4.78c.75,1.94-12.66,2-12.66,2s3-4.63,2.27-6.08S48,40.49,48,40.49Z"/><path class="cls-6" d="M53.92,22.93s1.79,13.2-2.13,15.61-6.27,4.06-9.92,4.2S29.14,40.2,28.52,36.6s-.82-13-.82-13,1.23-.52,1.71,1.35S31.2,30.4,32,30.46s4.82-3.66,6.81-3,4.49,2.94,5.66,2.94,4.77.72,5.75-2.34C51.3,24.75,53.1,22,53.92,22.93Z"/><path class="cls-9" d="M49.12,18.73a14.84,14.84,0,0,0-5.79-.2"/><path class="cls-9" d="M34.9,18.73s-4.12-1.22-5.65.07"/><path class="cls-10" d="M48,43.68s17.91,2.25,20.27,5.5c0,0,16.59,7.09,15.61,31.68s2,41.55-3.85,42.36c-10,1.39-9.45-1.51-9-29.22,0,0-1.86-17.3-4-20.08-1.58-2,.16,37.36.16,37.36L16.7,115.06l1.63-41.92s-6.12,23-5.8,30.53S10,122.54,10,122.54s-8.24,2.45-8.89-1S.78,72,4.48,66.11s5-13.91,18.73-17.56,14-3.67,14-3.67S46.05,48.56,48,43.68Z"/><path class="cls-11" d="M64.79,209.44,49,210.16l-.24,20.35s-13.59,11.25-5.19,9.81a205.73,205.73,0,0,1,21.25-1.91Z"/><path class="cls-11" d="M31.64,208.24,18,208.86l-.21,17.6S6,236.19,13.27,235a177.74,177.74,0,0,1,18.37-1.66Z"/><path class="cls-12" d="M66.57,47.92,58.43,45.3l-4.85,19L32,64.11,29.15,47s-7,.84-6.88,3c.14,1.63,1.16,15.95,1.16,15.95a23.47,23.47,0,0,0-5.56,12.81c-.7,7.64,0,33.63-1.61,40.6S12.07,165.47,13,172.66s3.48,29.66,3.94,32.36a45.12,45.12,0,0,1,.23,7.41l15.08-.22s.23-49.67,1.16-56,7.19-31,10.2-32.58c0,0,.47,40.67,1.16,44.27s2.32,43.59,3.48,44.49,17.86-.67,17.86-.67,4.23-30.71,2.84-47.57-.13-65.49-.36-66.84-.16-17.5-.16-17.5S66.11,70,63.79,67,66.57,47.92,66.57,47.92Z"/></g></g></svg>