<svg xmlns="http://www.w3.org/2000/svg" viewBox="0 0 59.95 202.22"><defs><style>.cls-1{fill:#f5d2b8;}.cls-2{fill:#e9c7ae;}.cls-15,.cls-16,.cls-17,.cls-18,.cls-19,.cls-20,.cls-21,.cls-22,.cls-3,.cls-4{fill:none;stroke-linecap:round;}.cls-3{stroke:#e9c7ae;stroke-miterlimit:10;}.cls-3,.cls-4{stroke-width:0.9px;}.cls-4{stroke:#dbbc9d;}.cls-15,.cls-16,.cls-17,.cls-18,.cls-19,.cls-20,.cls-21,.cls-22,.cls-4{stroke-linejoin:round;}.cls-5{fill:#efe1dd;}.cls-6{fill:#f4eae8;}.cls-7{fill:#68abba;}.cls-8{fill:#010101;}.cls-9{fill:#cbbba0;}.cls-10{fill:#2d272f;}.cls-11{fill:#2cb2aa;}.cls-12{fill:#d7b491;}.cls-13{fill:#723b29;}.cls-14{fill:#ececec;}.cls-15,.cls-16,.cls-17,.cls-18,.cls-19,.cls-20,.cls-21,.cls-22{stroke:#d9d9d9;}.cls-15{stroke-width:0.09px;}.cls-16{stroke-width:0.09px;}.cls-17{stroke-width:0.1px;}.cls-18{stroke-width:0.08px;}.cls-19{stroke-width:0.09px;}.cls-20{stroke-width:0.08px;}.cls-21{stroke-width:0.09px;}.cls-22{stroke-width:0.09px;}.cls-23{fill:#ec6470;}</style></defs><g id="Layer_2" data-name="Layer 2"><g id="Layer_3" data-name="Layer 3"><path class="cls-1" d="M7.52,91.93S9,98,9.26,98.9s1,1.43.87,2-.93-.06-1.31-.2a.46.46,0,0,1-.27-.24l-.92-1.24a8.3,8.3,0,0,1-.31-1.78c.08-.35-.32-.17-.32-.17l0,.58a8,8,0,0,0,.3,1.88c.23.45.94,2,.94,2s.32,1.14-.27,1.59-.75-.58-.75-.58L5.49,100.3s-.26,0-.39-2.28c0,0-.29-1-.25.74a4.18,4.18,0,0,0,.89,2.73,12.65,12.65,0,0,0,.7,1.11s.84,1.05.25,1.33-1.31-.41-1.31-.41l-.31-.39L3.7,101.42a2.87,2.87,0,0,1-.44-2.13c.09-.9-.16-.9-.16-.9s-.24.07-.18.74c.12,1.36.13,1.55.58,2.18l1.29,1.9s.27,1.32-.93.78a14.89,14.89,0,0,1-2-2.24s-.42-.33-.24-3.45a13.74,13.74,0,0,1,1.21-5.08L3,92.38Z"/><path class="cls-1" d="M4.72,48.93S3.35,70.19,3.07,79.83s-.24,12.84-.24,12.84.33,1.35,4.69.21c.38-.1,2.86-24.67,2.86-24.67l3-19.14"/><path class="cls-1" d="M49.6,52.52s.78,17.1,1.32,26.23-.3,13.5-.3,13.5,2.12,6.48,4.33,2.69,2.58-24.47,2.58-24.47l-.36-18"/><path class="cls-1" d="M50.83,92.29s-2.14,6.53-2.47,7.46-1.11,1.54-1,2.12,1-.07,1.43-.22a.5.5,0,0,0,.3-.25l1-1.34a8.69,8.69,0,0,0,.33-1.92c-.08-.38.36-.18.36-.18l0,.62a8.54,8.54,0,0,1-.33,2c-.25.48-1,2.13-1,2.13s-.35,1.23.3,1.71.82-.62.82-.62l1.83-2.57s.29,0,.43-2.46c0,0,.32-1.09.28.8a4.5,4.5,0,0,1-1,2.94,13.46,13.46,0,0,1-.77,1.19s-.93,1.13-.27,1.44,1.42-.44,1.42-.44l.34-.42,1.5-1.85a3.08,3.08,0,0,0,.49-2.3c-.1-1,.18-1,.18-1s.25.08.19.8c-.13,1.47-.14,1.67-.63,2.36s-1.41,2-1.41,2-.31,1.43,1,.84a16.33,16.33,0,0,0,2.15-2.42s.47-.35.26-3.71a14.4,14.4,0,0,0-1.32-5.47l-.46-.36Z"/><path class="cls-2" d="M27.08,29.46s-1.47,7.95-2.32,8.94S36.88,39,36.88,39s-1.94-10.76-.14-11Z"/><path class="cls-1" d="M45,14.15l-2.48-3C38.79,8.49,25.78,4.66,25.78,4.66s-8,9.67-3.59,18.41,8.25,10.46,12.08,9c2.56-1,7.72-6.49,8.52-9.9,0,0,2.69-6.43,2.22-8"/><path class="cls-3" d="M31.42,18.4s-2,6.86,1.55,5.18"/><path class="cls-4" d="M27.61,14.75s-3.08-1.23-4.82.82"/><path class="cls-4" d="M40.07,14.8s-2.9-1.6-4.88.22"/><path class="cls-5" d="M35,17.83a4.11,4.11,0,0,1,5.27-.22,5.11,5.11,0,0,1-2.31.71A19.5,19.5,0,0,1,35,17.83Z"/><path class="cls-6" d="M28,18a2.06,2.06,0,0,0-2.57-1.14,5,5,0,0,0-2.74,1.32,10.68,10.68,0,0,0,3.29.33C27,18.32,28,18,28,18Z"/><path class="cls-7" d="M24.87,17s-.51,1.55.94,1.53,1.79-.72,1.65-1.15C27.16,16.51,24.94,16.82,24.87,17Z"/><path class="cls-7" d="M36.6,16.87s-.58,1.24.91,1.41,1.61-.25,1.43-1.18C38.81,16.44,36.6,16.87,36.6,16.87Z"/><ellipse class="cls-8" cx="26.16" cy="17.7" rx="0.38" ry="0.36" transform="translate(5.65 41.71) rotate(-83.58)"/><ellipse class="cls-8" cx="37.82" cy="17.49" rx="0.36" ry="0.34" transform="translate(14.34 51.92) rotate(-80.53)"/><path class="cls-9" d="M12.87,190.76s-.19,3.74-1.17,4.33S-.68,202.75,5,202.16s17.87-1.77,17.87-1.77l.2-10.41Z"/><path class="cls-9" d="M48.67,190.4s0,3.73.95,4.37,11.73,8.24,6.18,7.38-17.39-2.62-17.39-2.62l.31-10.41Z"/><path class="cls-1" d="M14.06,78.7s.1,16.23-.8,19,34.35,1.41,34.35,1.41-1.7-17.53-2.3-19.23S14.06,78.7,14.06,78.7Z"/><path class="cls-10" d="M13.48,91.46S6.42,183,8.32,189.62c0,0,8.53,3.32,16.59.95l4-73.68,3.39.21,4.26,71.34s9.24,4.26,14.93.94c0,0,1.22-83.75-4.23-97.73C47.23,92.83,13.48,91.46,13.48,91.46Z"/><path class="cls-11" d="M25.51,36.35s-19.13.37-21.7,11c0,0-4.28,10.88-3.77,14.48s12.8,1.24,12.8,1.24,1.45,15.78,1.16,18L45.84,82s-.25-17.14.65-18.34L60,63.51S59.8,42.72,42.6,37.79L37,37.16S29,39.91,25.51,36.35Z"/><path class="cls-12" d="M28.69.26A13.64,13.64,0,0,0,16,13a14.67,14.67,0,0,1-1.69,6.08c-.67,1.52-.61,4.78-1.49,6.16s-2.26,11.3-1.58,12.82.4,16.68,3.94,17.35,7.25,2.51,8.48-.79S27,32.77,25.46,30.41s-2.93-9.58-2.57-10.85,1.69-9.29,6.62-9.78c5.59-.55,9.56,3.05,11.84,6.13s-1.27,8.84-2.09,12.33-7.52,22.2-6.51,26.42,16.49,7.43,16-1.18S51,27.23,50.29,24.69s.75-8.35-2-12.23S42.36-1.77,28.69.26Z"/><circle class="cls-2" cx="29.95" cy="90.31" r="0.65"/><polygon class="cls-13" points="27.91 26.07 36.59 25.59 36.8 25.86 30.13 28.08 27.76 26.1 27.91 26.07"/><path class="cls-14" d="M28.54,26.06s.32.63.61.54.09-.17.09-.17a.45.45,0,0,0,.46.41c.24,0,.21-.25.21-.25-.05.41.25.4.25.4.61.09.39-.35.39-.35a.51.51,0,0,0,.49.54c1,.16.68-.61.68-.61s-.09.56.61.59c.91,0,.6-.51.6-.51s0,.27.4.27c.88,0,.58-.48.58-.48s-.18.18.31.23.4-.48.4-.48-.08.31.19.23a.2.2,0,0,0,.13-.31s.1.23.25.1c.3-.26,0-.41,0-.41l-2,.13-2.88.17-1,0h-.34"/><line class="cls-15" x1="29.26" y1="26.53" x2="29.31" y2="26.15"/><line class="cls-16" x1="29.89" y1="26.69" x2="30.02" y2="26.13"/><line class="cls-17" x1="34.59" y1="26.32" x2="34.47" y2="25.88"/><line class="cls-18" x1="34.96" y1="26.2" x2="34.91" y2="25.83"/><line class="cls-19" x1="30.59" y1="26.83" x2="30.65" y2="26.23"/><line class="cls-20" x1="31.77" y1="26.89" x2="31.73" y2="26.17"/><line class="cls-21" x1="33.96" y1="26.61" x2="33.84" y2="25.95"/><line class="cls-22" x1="33" y1="26.78" x2="32.87" y2="25.98"/><path class="cls-23" d="M27.54,25.67a22.36,22.36,0,0,1,4.33.13c.54.18,4.26-.8,4.82-.35.38.3-2.89,1-4.3,1C27.73,26.59,27.64,25.85,27.54,25.67Z"/><path class="cls-23" d="M27.66,26s1.76,2.81,3.77,2.76c2.28-.06,5.48-2.6,5.4-3s-4.32,1.67-5.51,1.64C30.37,27.43,27.76,26,27.66,26Z"/></g></g></svg>