<svg xmlns="http://www.w3.org/2000/svg" viewBox="0 0 59.58 164.24"><defs><style>.cls-1{fill:#f5d2b8;}.cls-2{fill:#587eb0;}.cls-22,.cls-3{fill:#e9c7ae;}.cls-11,.cls-12,.cls-13,.cls-14,.cls-15,.cls-16,.cls-17,.cls-18,.cls-21,.cls-4{fill:none;}.cls-21,.cls-22,.cls-4{stroke:#e9c7ae;}.cls-11,.cls-12,.cls-13,.cls-14,.cls-15,.cls-16,.cls-17,.cls-18,.cls-22,.cls-4{stroke-linecap:round;stroke-linejoin:round;}.cls-22,.cls-4{stroke-width:0.25px;}.cls-5{fill:#c59179;}.cls-6{fill:#ecdbd7;}.cls-7{fill:#634743;}.cls-8{fill:#010101;}.cls-9{fill:#723b29;}.cls-10{fill:#ececec;}.cls-11,.cls-12,.cls-13,.cls-14,.cls-15,.cls-16,.cls-17,.cls-18{stroke:#d9d9d9;}.cls-11{stroke-width:0.07px;}.cls-12{stroke-width:0.07px;}.cls-13{stroke-width:0.07px;}.cls-14{stroke-width:0.06px;}.cls-15{stroke-width:0.07px;}.cls-16{stroke-width:0.06px;}.cls-17{stroke-width:0.07px;}.cls-18{stroke-width:0.07px;}.cls-19{fill:#b26364;}.cls-20{fill:#8e3089;}.cls-21{stroke-miterlimit:10;}.cls-23{fill:#d3ad88;}.cls-24{fill:#5096ba;}</style></defs><g id="Layer_2" data-name="Layer 2"><g id="Layer_1-2" data-name="Layer 1"><path class="cls-1" d="M11.07,103.61s-3,15.76-2.35,18.51-.91,6.14-.26,7.83.48,7.43.79,9.62,1.08,11.57,1.08,11.57l7-.1s1.23-11.76.71-13.35.31-5.63-.42-8.25a22.28,22.28,0,0,1-.71-7.06c.13-1.52,1.92-11.23,2-11.94s.91-6.14.91-6.14"/><path class="cls-1" d="M27.76,107.64s-1.42,14.41-1.16,18.44-.38,6.59-.38,10.94a66.24,66.24,0,0,0,.51,10.17,15.91,15.91,0,0,1,.26,3.68l6.41.56s2.19-6.81,1.54-8.82a21.31,21.31,0,0,1-.25-8.6c.51-2.35-1.29-5.48-.39-7.71s1.93-10.5,1.8-11.28,0-8.49,0-8.49"/><path class="cls-2" d="M12.7,69.26S3.32,91.88,2.84,92.77-.53,97.66.09,100.13s19.18,7.57,19.18,7.57,4.13,3.37,8.67,3.16,15-3.16,16.44-2.41l.07-36.91L33.17,80.33,30,83.63l-3.92,2.75-4.33.14Z"/><path class="cls-2" d="M26,30.34S16.84,32,15.55,34.74c0,0-2.66,1.77-2.8,6.2,0,0-2.59,1.16-2.86,5.18,0,0-1.16,5.45-1.36,6.2s-1.36,5.93-1.36,5.93a6.66,6.66,0,0,0,3.88,2c2.66.48,7.14.65,7.27,1.61s-.48,1.7-.14,3.88c0,0,1.73,2,1.8,3.78s1.3,12.66,1.77,13,.94,3,3.46,2.23,7.77-7,7.77-7S38.58,66.9,40,66l.41-2.25s4.43-.68,5.66-.68,13.21-3.21,13.49-3.89-2.73-6-2.8-7.08-3-9.07-4.63-11.18c0,0,.54-7.29-7.9-8.45l-3.55-1-3.54,3.61-4.43,1.43-4.36-1.3-1.71-2Z"/><path class="cls-3" d="M27.21,26.2s-.38,3.92-1.25,4.14-1.31,3.87.16,4.85,7.57,3,9.37,2.17,5.22-4.52,5.55-5.22-2-7.73-1.69-9.91"/><path class="cls-1" d="M24.11,19.75s.23,3.13,1.2,4.41a21.27,21.27,0,0,0,3.3,3s1.68,1.94,3.4,1.54a6.2,6.2,0,0,0,3.74-1.45,12.7,12.7,0,0,0,4.41-7.09s.79.79,1.14.61.8-.48.84-.79a5.06,5.06,0,0,1,.57-1.32c.27-.49,1.24-1.59.66-2.56,0,0-.7-1.76-2-1,0,0-1.5-8.19-4.93-8.85S30.73,4.46,29.63,6s-4.76,3.17-5.42,7.18A19.11,19.11,0,0,0,24.11,19.75Z"/><path class="cls-4" d="M34.3,20.06s1.85,1.14,1.54,2.64"/><path class="cls-4" d="M27.69,21.56A1.18,1.18,0,0,0,27.51,23"/><path class="cls-4" d="M41.83,19s1.72-1.19,1.28-2.51"/><path class="cls-4" d="M41,18.08a3.32,3.32,0,0,0,.58-1.46"/><path class="cls-4" d="M42.23,17.55s-.4-.14-.4.66"/><path class="cls-4" d="M41.21,16s1.15-.74,1.46.05"/><path class="cls-4" d="M32.93,18.6a1.64,1.64,0,0,1,0,2.25,1.32,1.32,0,0,0-1.63.4,2.85,2.85,0,0,0,1.15-.18"/><path class="cls-4" d="M30.07,21,29.45,21s0,.31.35.36S30.07,21,30.07,21Z"/><path class="cls-4" d="M32.23,15.3s-.49,1.72.52,2.2"/><path class="cls-4" d="M29.23,15.52a3.94,3.94,0,0,1,.09,2.42"/><path class="cls-5" d="M32.34,14.45a6,6,0,0,1,5.36-.74c.11.07-3.32,0-4.24.67A3.5,3.5,0,0,1,32.34,14.45Z"/><path class="cls-5" d="M27.87,14.58a7.13,7.13,0,0,0-2.74-.09c-1.56.25-1.54.47-1.54.47A16.47,16.47,0,0,1,27,14.91C27.83,15.14,27.87,14.58,27.87,14.58Z"/><path class="cls-6" d="M32.86,16.41a2.64,2.64,0,0,1,3.3-.69,3.32,3.32,0,0,1-1.38.69A12.74,12.74,0,0,1,32.86,16.41Z"/><path class="cls-6" d="M28.47,16.65a1.25,1.25,0,0,0-1.62-.51,3,3,0,0,0-1.56,1,6.55,6.55,0,0,0,2,0A12,12,0,0,0,28.47,16.65Z"/><path class="cls-7" d="M26.53,16.27s-.2,1,.66.85,1-.56.92-.8C27.87,15.8,26.55,16.14,26.53,16.27Z"/><path class="cls-7" d="M33.79,15.63s-.23.84.72.79,1-.32.78-.88C35.13,15.13,33.79,15.63,33.79,15.63Z"/><ellipse class="cls-8" cx="27.35" cy="16.58" rx="0.22" ry="0.23"/><ellipse class="cls-8" cx="34.62" cy="15.9" rx="0.22" ry="0.23"/><polygon class="cls-9" points="28.36 23.23 34.94 22.25 35.11 22.44 30.2 24.6 28.25 23.27 28.36 23.23"/><path class="cls-10" d="M28.84,23.18s.29.46.51.36,0-.13,0-.13a.34.34,0,0,0,.38.28c.18,0,.14-.2.14-.2,0,.31.22.28.22.28.47,0,.27-.29.27-.29a.39.39,0,0,0,.41.38c.77,0,.48-.52.48-.52s0,.43.5.41c.7,0,.42-.43.42-.43s0,.19.33.17c.67,0,.4-.41.4-.41s-.12.15.25.16.28-.4.28-.4,0,.24.16.17a.16.16,0,0,0,.08-.25s.09.17.19.06,0-.31,0-.31l-1.54.24-2.18.33-.75.06-.26,0"/><line class="cls-11" x1="29.42" y1="23.48" x2="29.44" y2="23.19"/><line class="cls-12" x1="29.91" y1="23.56" x2="29.97" y2="23.12"/><line class="cls-13" x1="33.47" y1="22.94" x2="33.34" y2="22.62"/><line class="cls-14" x1="33.74" y1="22.83" x2="33.67" y2="22.55"/><line class="cls-15" x1="30.46" y1="23.62" x2="30.46" y2="23.16"/><line class="cls-16" x1="31.36" y1="23.58" x2="31.28" y2="23.04"/><line class="cls-17" x1="33" y1="23.21" x2="32.87" y2="22.71"/><line class="cls-18" x1="32.28" y1="23.41" x2="32.13" y2="22.81"/><path class="cls-19" d="M28.06,23a17.38,17.38,0,0,1,3.29-.22c.43.11,3.19-.91,3.65-.61s-2.13.95-3.2,1.08C28.26,23.64,28.14,23.09,28.06,23Z"/><path class="cls-19" d="M28.17,23.23s1.54,2,3.07,1.83c1.73-.21,4-2.37,3.89-2.66S32,24,31.06,24.05A18.25,18.25,0,0,1,28.17,23.23Z"/><circle class="cls-20" cx="41.09" cy="19.75" r="0.35"/><path class="cls-1" d="M18,94.5a24,24,0,0,1-.21,4.3c-.3,1-1,1.4-.87,2s1.1.26,1.1.26l1.48-2.92a8.59,8.59,0,0,0,.45-2,.74.74,0,0,1,.31-.68l-.12,2.05a7.3,7.3,0,0,1,.12,2.39c-.23.53-1,2.27-1,2.27s-.68,1.29-.07,1.83.76-.69.76-.69l1.7-2.84s.73-.42.38-4.06c0,0,.35-.5.31,1.59a9.88,9.88,0,0,1-.72,4c-.31.64-.57,1.25-.57,1.25s-1.22,1.25-.61,1.59,1.33-.49,1.33-.49l.31-.46,1.4-2a7.07,7.07,0,0,0,.45-2.54L24,97.51s.34-.08.26,1.55,0,2-.45,2.77l-1.41,2.32s0,.53.46.26a27.56,27.56,0,0,0,2.31-2.77s.57.15.38-3.56-.22-5.43-.22-5.43l-.38-.87Z"/><path class="cls-1" d="M12.09,59.79s.28,7.06.2,7.89a30.72,30.72,0,0,0,1.39,6.63c.75,2.49,3.21,10.31,3.49,10.71s6,0,6.34,0S21.06,80.37,21,77.32s-1.11-9.88-1.71-10.15-1.23-2.23-1-3.06a23.88,23.88,0,0,0,.32-2.78Z"/><line class="cls-21" x1="23.19" y1="84.61" x2="17.12" y2="84.95"/><line class="cls-21" x1="25.19" y1="92.57" x2="18.01" y2="94.5"/><path class="cls-1" d="M40.76,62.87,48,62.51s-1.8,6.42-2.21,7.14A13.35,13.35,0,0,1,44,72.88c-1.13,1.34-5.08,6.93-10.78,13s-8.83,7-8.83,7a10.77,10.77,0,0,1-3.85,1L18,94.5a1.08,1.08,0,0,1-.82-1.08,5.11,5.11,0,0,1,.36-.67S16.42,93,17,91.47c0,0-.72-1,0-1.77a1,1,0,0,1-.15-1.57l2.12-1.87s-1.87.95-2.76.27c0,0-.65-.43-.13-.67a5.9,5.9,0,0,0,1.66-.93,48.5,48.5,0,0,0,5.83-.57,19.38,19.38,0,0,0,3.58-1.77c.92-.69,3.42-3,3.42-3l2.93-3.58,4.38-7.5Z"/><path class="cls-22" d="M17,89.7a21.81,21.81,0,0,0,2.35-1.24"/><path class="cls-22" d="M17,91.47s3-1.23,3.06-1.62"/><path class="cls-4" d="M17.55,92.75s2.52-.89,2.72-1.28"/><path class="cls-23" d="M30.13.16s-9.91,1.6-11,12a12.5,12.5,0,0,1-1.43,5.15c-.58,1.29,1.08,4.11.32,5.28s-2.33,3.17-1.75,4.46-2.44,7.45.57,8,7.93,2.14,9-.65,1.18-7.23-.1-9.23-1.89-4.79-1.58-5.87S26.7,7.32,30,6.89s8.67,5.12,10.6,7.73,1.38,3.54.69,6.5S37.15,27.65,38,31.23s11.6,8.16,11.17.86-.43-7.87-1-10,.43-4.58-1.87-7.88S41.73-1.56,30.13.16Z"/><path class="cls-24" d="M18,149.87,9.48,150v7.68s-10.65,6.42-3.13,6.19c5.68-.18,11.52.08,11.52.08Z"/><path class="cls-24" d="M35.28,150.22l-8.46.08V158s-10.65,6.43-3.13,6.19c5.68-.17,11.52.08,11.52.08Z"/></g></g></svg>